<svg id="Capa_1" data-name="Capa 1" xmlns="http://www.w3.org/2000/svg" viewBox="0 0 997.71 1013"><defs><style>.cls-1{fill:#fbe375;}.cls-2{fill:#c9a252;}.cls-3{fill:#a79a87;}.cls-4{fill:#968b79;}.cls-5{fill:#fff;}.cls-6{fill:#272525;}</style></defs><title>Sin título-1</title><g id="_Grupo_" data-name="&lt;Grupo&gt;"><path id="_Trazado_" data-name="&lt;Trazado&gt;" class="cls-1" d="M739,77.07H915.15a22,22,0,0,1,22,22V209.2a22,22,0,0,1-22,22H739Z" transform="translate(-12.26 -11)"/><path id="_Trazado_2" data-name="&lt;Trazado&gt;" class="cls-2" d="M694.93,77.07h198.2V231.22H694.93Z" transform="translate(-12.26 -11)"/><path id="_Trazado_3" data-name="&lt;Trazado&gt;" class="cls-3" d="M827.07,1024H100.35a44,44,0,0,1-44-44V55a44,44,0,0,1,44-44H827.07a44,44,0,0,1,44,44V980A44,44,0,0,1,827.07,1024Z" transform="translate(-12.26 -11)"/><path id="_Trazado_4" data-name="&lt;Trazado&gt;" class="cls-4" d="M210.46,1024H100.35a44,44,0,0,1-44-44V55a44,44,0,0,1,44-44H210.46Z" transform="translate(-12.26 -11)"/><path id="_Trazado_compuesto_" data-name="&lt;Trazado compuesto&gt;" class="cls-5" d="M155.4,869.85h0a11,11,0,0,1,11,11h0a11,11,0,0,1-11,11h0a11,11,0,0,1-11-11h0A11,11,0,0,1,155.4,869.85Zm-11-715.71h0a11,11,0,0,0,11,11h0a11,11,0,0,0,11-11h0a11,11,0,0,0-11-11h0A11,11,0,0,0,144.39,154.14Zm0,363.36h0a11,11,0,0,0,11,11h0a11,11,0,0,0,11-11h0a11,11,0,0,0-11-11h0A11,11,0,0,0,144.39,517.5Z" transform="translate(-12.26 -11)"/><path id="_Trazado_compuesto_2" data-name="&lt;Trazado compuesto&gt;" class="cls-6" d="M89.34,99.09H23.27a11,11,0,0,1-11-11h0a11,11,0,0,1,11-11H89.34a11,11,0,0,1,11,11h0A11,11,0,0,1,89.34,99.09Zm11,55.05h0a11,11,0,0,0-11-11H23.27a11,11,0,0,0-11,11h0a11,11,0,0,0,11,11H89.34A11,11,0,0,0,100.35,154.14Zm0,66.07h0a11,11,0,0,0-11-11H23.27a11,11,0,0,0-11,11h0a11,11,0,0,0,11,11H89.34A11,11,0,0,0,100.35,220.21Zm0,66.07h0a11,11,0,0,0-11-11H23.27a11,11,0,0,0-11,11h0a11,11,0,0,0,11,11H89.34A11,11,0,0,0,100.35,286.27Zm0,66.07h0a11,11,0,0,0-11-11H23.27a11,11,0,0,0-11,11h0a11,11,0,0,0,11,11H89.34A11,11,0,0,0,100.35,352.34Zm0,66.07h0a11,11,0,0,0-11-11H23.27a11,11,0,0,0-11,11h0a11,11,0,0,0,11,11H89.34A11,11,0,0,0,100.35,418.4Zm0,66.07h0a11,11,0,0,0-11-11H23.27a11,11,0,0,0-11,11h0a11,11,0,0,0,11,11H89.34A11,11,0,0,0,100.35,484.47Zm0,66.07h0a11,11,0,0,0-11-11H23.27a11,11,0,0,0-11,11h0a11,11,0,0,0,11,11H89.34A11,11,0,0,0,100.35,550.53Zm0,66.07h0a11,11,0,0,0-11-11H23.27a11,11,0,0,0-11,11h0a11,11,0,0,0,11,11H89.34A11,11,0,0,0,100.35,616.6Zm0,66.07h0a11,11,0,0,0-11-11H23.27a11,11,0,0,0-11,11h0a11,11,0,0,0,11,11H89.34A11,11,0,0,0,100.35,682.66Zm0,66.07h0a11,11,0,0,0-11-11H23.27a11,11,0,0,0-11,11h0a11,11,0,0,0,11,11H89.34A11,11,0,0,0,100.35,748.73Zm0,66.07h0a11,11,0,0,0-11-11H23.27a11,11,0,0,0-11,11h0a11,11,0,0,0,11,11H89.34A11,11,0,0,0,100.35,814.79Zm0,66.07h0a11,11,0,0,0-11-11H23.27a11,11,0,0,0-11,11h0a11,11,0,0,0,11,11H89.34A11,11,0,0,0,100.35,880.86Zm0,66.07h0a11,11,0,0,0-11-11H23.27a11,11,0,0,0-11,11h0a11,11,0,0,0,11,11H89.34A11,11,0,0,0,100.35,946.92Z" transform="translate(-12.26 -11)"/></g><path d="M952.3,758.17H267.7A57.67,57.67,0,0,1,210,700.5v-377a57.67,57.67,0,0,1,57.67-57.67H952.3A57.67,57.67,0,0,1,1010,323.5V700.43a57.67,57.67,0,0,1-57.63,57.7h0Zm-550-115.4v-150l76.93,96.17,76.9-96.17v150h76.93V381.27H556.13l-76.9,96.17L402.3,381.27H325.37V642.83ZM917.7,512H840.77V381.23h-76.9V512H686.93L802.3,646.63Z" transform="translate(-12.26 -11)"/></svg>